<?xml version="1.0" encoding="utf-8"?>
<!-- Generator: Adobe Illustrator 22.0.1, SVG Export Plug-In . SVG Version: 6.00 Build 0)  -->
<svg version="1.1" id="Ebene_1" xmlns="http://www.w3.org/2000/svg" xmlns:xlink="http://www.w3.org/1999/xlink" x="0px" y="0px"
	 viewBox="0 0 64 64" style="enable-background:new 0 0 64 64;" xml:space="preserve">
<style type="text/css">
	.st0{fill:#000001;}
</style>
<g>
	<path class="st0" d="M56.059,40.929c-0.211-0.211-0.553-0.211-0.765,0l-7.429,7.429l-3.16-3.159c-0.211-0.211-0.553-0.211-0.764,0
		l-1.783,1.783c-0.211,0.211-0.211,0.553,0,0.764l5.325,5.325c0.105,0.106,0.244,0.158,0.382,0.158c0.138,0,0.277-0.053,0.382-0.158
		l9.594-9.594C57.943,43.375,58,43.238,58,43.095c0-0.143-0.057-0.281-0.158-0.382L56.059,40.929z"/>
	<path class="st0" d="M35,47c0-3.61,1.282-6.925,3.414-9.516c-0.015-0.262-0.037-0.516-0.037-0.793c0-3.132,2.322-2.109,3.342-7.844
		c0.423-2.378,2.474-0.038,2.867-5.47c0-2.164-1.12-2.703-1.12-2.703s0.569-3.203,0.792-5.668C44.534,11.935,42.556,4,32,4
		s-12.536,7.935-12.258,11.007c0.223,2.465,0.792,5.668,0.792,5.668s-1.12,0.538-1.12,2.703c0.392,5.431,2.443,3.091,2.866,5.47
		c1.021,5.735,3.342,4.712,3.342,7.844c0,5.216-2.43,7.653-10.035,10.541C7.957,50.13,1,53.084,1,55.098C1,57.112,1,60,1,60h31
		h10.548C38.045,57.409,35,52.558,35,47z"/>
	<path class="st0" d="M50,34c-7.18,0-13,5.82-13,13c0,7.18,5.82,13,13,13s13-5.82,13-13C63,39.82,57.18,34,50,34z M50,58.375
		c-6.272,0-11.375-5.103-11.375-11.375S43.728,35.625,50,35.625S61.375,40.728,61.375,47S56.272,58.375,50,58.375z"/>
</g>
</svg>
