<?xml version="1.0" encoding="utf-8"?>
<!-- Generator: Adobe Illustrator 22.0.1, SVG Export Plug-In . SVG Version: 6.00 Build 0)  -->
<svg version="1.1" id="Ebene_1" xmlns="http://www.w3.org/2000/svg" xmlns:xlink="http://www.w3.org/1999/xlink" x="0px" y="0px"
	 viewBox="0 0 64 64" style="enable-background:new 0 0 64 64;" xml:space="preserve">
<style type="text/css">
	.st0{fill:#000001;}
</style>
<g>
	<path class="st0" d="M48.414,47.232c-7.605-2.888-10.036-5.325-10.036-10.541c0-3.132,2.322-2.109,3.342-7.844
		c0.423-2.378,2.474-0.038,2.867-5.47c0-2.164-1.12-2.703-1.12-2.703s0.569-3.203,0.792-5.668C44.534,11.935,42.556,4,32,4
		s-12.536,7.935-12.258,11.007c0.223,2.465,0.792,5.668,0.792,5.668s-1.12,0.538-1.12,2.703c0.392,5.431,2.443,3.091,2.866,5.47
		c1.021,5.735,3.342,4.712,3.342,7.844c0,5.217-2.43,7.653-10.035,10.541C7.957,50.13,1,53.084,1,55.098C1,57.112,1,60,1,60h31h31
		c0,0,0-2.888,0-4.902C63,53.084,56.043,50.13,48.414,47.232z"/>
</g>
</svg>
