<svg xmlns="http://www.w3.org/2000/svg" xmlns:xlink="http://www.w3.org/1999/xlink" width="0" height="0" style="position:absolute">
    <defs>
      
        <svg id="icon_user" viewBox="0 0 64 64" width="64" height="64"><style>.st0{fill:#000001}</style><path class="st0" d="M48.414 47.232c-7.605-2.888-10.036-5.325-10.036-10.541 0-3.132 2.322-2.109 3.342-7.844.423-2.378 2.474-.038 2.867-5.47 0-2.164-1.12-2.703-1.12-2.703s.569-3.203.792-5.668C44.534 11.935 42.556 4 32 4s-12.536 7.935-12.258 11.007c.223 2.465.792 5.668.792 5.668s-1.12.538-1.12 2.703c.392 5.431 2.443 3.091 2.866 5.47 1.021 5.735 3.342 4.712 3.342 7.844 0 5.217-2.43 7.653-10.035 10.541C7.957 50.13 1 53.084 1 55.098V60h62v-4.902c0-2.014-6.957-4.968-14.586-7.866z"></path></svg>
      
        <svg id="icon_userlogin" viewBox="0 0 64 64" width="64" height="64"><style>.st0{fill:#000001}</style><path class="st0" d="M56.059 40.929a.541.541 0 0 0-.765 0l-7.429 7.429-3.16-3.159a.54.54 0 0 0-.764 0l-1.783 1.783a.54.54 0 0 0 0 .764l5.325 5.325a.54.54 0 0 0 .764 0l9.594-9.594a.54.54 0 0 0 .001-.764l-1.783-1.784z"></path><path class="st0" d="M35 47c0-3.61 1.282-6.925 3.414-9.516-.015-.262-.037-.516-.037-.793 0-3.132 2.322-2.109 3.342-7.844.423-2.378 2.474-.038 2.867-5.47 0-2.164-1.12-2.703-1.12-2.703s.569-3.203.792-5.668C44.534 11.935 42.556 4 32 4s-12.536 7.935-12.258 11.007c.223 2.465.792 5.668.792 5.668s-1.12.538-1.12 2.703c.392 5.431 2.443 3.091 2.866 5.47 1.021 5.735 3.342 4.712 3.342 7.844 0 5.216-2.43 7.653-10.035 10.541C7.957 50.13 1 53.084 1 55.098V60h41.548C38.045 57.409 35 52.558 35 47z"></path><path class="st0" d="M50 34c-7.18 0-13 5.82-13 13s5.82 13 13 13 13-5.82 13-13-5.82-13-13-13zm0 24.375c-6.272 0-11.375-5.103-11.375-11.375S43.728 35.625 50 35.625 61.375 40.728 61.375 47 56.272 58.375 50 58.375z"></path></svg>
      
  </defs>
</svg>
